<svg xmlns="http://www.w3.org/2000/svg" viewBox="0 0 200.11 193.87"><defs><style>.cls-1{isolation:isolate;}.cls-2{fill:#eceef0;}.cls-3{fill:#fff;}.cls-4{fill:#161616;}.cls-5{fill:#d8d9dd;}.cls-6{fill:#232323;}.cls-7{fill:#333;}.cls-8{fill:#090909;}.cls-9{fill:#4d4d4d;}.cls-10,.cls-11{fill:#c3c5c4;}.cls-10{mix-blend-mode:soft-light;}.cls-11{opacity:0.54;mix-blend-mode:overlay;}.cls-12{opacity:0.52;}</style></defs><title>摄像头3</title><g class="cls-1"><g id="图层_1" data-name="图层 1"><rect class="cls-2" x="123.22" y="99.8" width="12.51" height="39.27" transform="translate(-36.9 61.58) rotate(-23.52)"/><polygon class="cls-3" points="127.37 98.94 131.57 139.94 143.04 134.94 127.37 98.94"/><rect class="cls-2" x="160.2" y="116.68" width="12.51" height="52.71" transform="translate(23.79 309.8) rotate(-90.13)"/><circle class="cls-4" cx="120.68" cy="99.77" r="12.57" transform="translate(-29.96 57.06) rotate(-23.75)"/><polygon class="cls-3" points="148.35 136.79 192.82 149.23 145.93 149.34 148.35 136.79"/><circle class="cls-4" cx="140.09" cy="143.05" r="12.57" transform="translate(-23.63 258.31) rotate(-80.75)"/><path d="M190.28,121.5h2.53a0,0,0,0,1,0,0v40.24a0,0,0,0,1,0,0h-2.53a3.7,3.7,0,0,1-3.7-3.7V125.2A3.7,3.7,0,0,1,190.28,121.5Z"/><path class="cls-4" d="M196.52,114.46h2.53a0,0,0,0,1,0,0v54.32a0,0,0,0,1,0,0h-2.53a3.7,3.7,0,0,1-3.7-3.7V118.16A3.7,3.7,0,0,1,196.52,114.46Z"/><path class="cls-5" d="M159.61,44.16s4.75,12.16,2.66,18S99,123.34,99,123.34L96.09,107.8l58.74-64.46Z"/><path class="cls-6" d="M1.17,74.64,14.49,107.8s3.75,5.14,12.08-4L24.9,71.58S7.42,63.4,1.17,74.64Z"/><rect class="cls-7" x="24.79" y="68.17" width="76.71" height="53.48" rx="2.89"/><rect class="cls-8" x="34.72" y="79.56" width="49.07" height="34.21" rx="1.85"/><path class="cls-2" d="M1.17,74.64s-1.66-4.16,7.5-9.16S101.08,25.1,101.08,25.1h57.45s5.41-.71,6.24,8.6-7.49,10.55-9.16,14.3S150.2,55.85,149,67.74l-43.29,42.7s-8.33,3-9.57-2.64S85.68,79.56,85.68,79.56s-.83-8.23-14.57-8-62,0-62,0S6.17,71.31,1.17,74.64Z"/><path class="cls-9" d="M68.4,95.56a9.26,9.26,0,1,1-9.26-9.26A9.26,9.26,0,0,1,68.4,95.56Z"/><path class="cls-10" d="M91.08,74.58l7.71,21s3,17.25,19.23-3.7C118,91.86,102.9,107.58,91.08,74.58Z"/><path class="cls-11" d="M53.58,92.74S54.33,89,60,89s9,7.94,4.06,11.9c0,0,2.18-5.94-2.19-9.22S53.58,92.74,53.58,92.74Z"/><g class="cls-12"><path class="cls-3" d="M155.61,48c1.67-3.75,10-5,9.16-14.3s-6.24-8.6-6.24-8.6H101.08l-7.32,3.12c13.4.09,25.27,2.24,31,8.41,9.56,10.25,11,29.39,10.31,44.79L149,67.74C150.2,55.85,154,51.74,155.61,48Z"/></g></g></g></svg>