<?xml version="1.0" standalone="no"?><!DOCTYPE svg PUBLIC "-//W3C//DTD SVG 1.1//EN" "http://www.w3.org/Graphics/SVG/1.1/DTD/svg11.dtd"><svg t="1682410072892" class="icon" viewBox="0 0 1024 1024" version="1.1" xmlns="http://www.w3.org/2000/svg" p-id="11219" xmlns:xlink="http://www.w3.org/1999/xlink" width="200" height="200"><path d="M163.93 694.68s20.35 25.48 155.99-4.16 145.78 22.08 237.05 16c91.27-6.08 146.95-31.44 223.1-31.44 51.72 0 74.8 5.17 79.87 9.54 5.07 4.37-130.81 218.61-353.97 212.16-280.92-8.13-342.04-202.1-342.04-202.1z" fill="#68AB32" opacity=".5" p-id="11220"></path><path d="M512 920c-224.4 0-408-183.6-408-408s183.6-408 408-408 408 183.6 408 408-183.6 408-408 408z m0-45.92c198.88 0 362.08-163.2 362.08-362.08S710.88 149.92 512 149.92 149.92 313.12 149.92 512 313.12 874.08 512 874.08z m0 0" fill="#1E8FC1" p-id="11221"></path><path d="M343.68 226.4c15.28 0 25.52 10.24 25.52 25.52v540.64c0 15.28-10.16 25.52-25.52 25.52-15.28 0-25.52-10.24-25.52-25.52V251.92c0-15.28 10.24-25.52 25.52-25.52z m0 0M705.76 522.24c0 28.19 22.85 51.04 51.04 51.04 28.19 0 51.04-22.85 51.04-51.04 0-28.19-22.85-51.04-51.04-51.04-28.19 0-51.04 22.85-51.04 51.04z m0 0" fill="#1E8FC1" p-id="11222"></path><path d="M683.04 419.92c7.92-5.36 18.64-3.28 23.92 4.64 5.36 7.92 3.28 18.64-4.64 23.92-43.76 29.52-55.28 88.88-25.84 132.64a94.834 94.834 0 0 0 22.48 23.44c7.76 5.6 9.52 16.32 3.92 24.08-5.6 7.76-16.32 9.52-24.08 3.92-0.08-0.08-0.24-0.16-0.32-0.24-57.76-42.64-70.08-124.08-27.36-181.84 8.8-11.92 19.6-22.24 31.92-30.56z m0 0" fill="#1E8FC1" p-id="11223"></path><path d="M614.4 357.04c7.2-6.24 18.08-5.44 24.32 1.76 6.24 7.2 5.44 18.08-1.76 24.32-0.16 0.16-0.4 0.32-0.56 0.48-79.6 65.92-90.72 183.84-24.8 263.44 6.24 7.52 13.04 14.56 20.4 21.04 7.12 6.32 7.84 17.2 1.52 24.32-6.32 7.12-17.2 7.84-24.32 1.52-91.76-80.96-100.56-220.96-19.68-312.8 7.68-8.56 16-16.64 24.88-24.08z m0 0" fill="#1E8FC1" p-id="11224"></path><path d="M522.88 300.24c7.12-6.32 18-5.68 24.32 1.44 6.32 7.12 5.68 18-1.44 24.32C434.4 424.56 424 594.8 522.56 706.16c6.24 7.04 12.88 13.84 19.84 20.24 6.8 6.64 7.04 17.52 0.4 24.4-6.4 6.56-16.72 7.04-23.68 1.04-123.68-113.2-132.24-305.44-18.96-429.2 7.2-7.84 14.8-15.28 22.72-22.4z m0 0" fill="#1E8FC1" p-id="11225"></path></svg>